<svg xmlns="http://www.w3.org/2000/svg" xmlns:xlink="http://www.w3.org/1999/xlink" width="500" zoomAndPan="magnify" viewBox="0 0 375 374.999991" height="500" preserveAspectRatio="xMidYMid meet" version="1.0"><defs><g/></defs><path stroke-linecap="butt" transform="matrix(0.749776, 0, 0, 0.75, 52.649799, 211.786392)" fill="none" stroke-linejoin="miter" d="M -0.00181647 5.998352 L 209.065919 5.998352 " stroke="#ffffff" stroke-width="12" stroke-opacity="1" stroke-miterlimit="4"/><g fill="#ffffff" fill-opacity="1"><g transform="translate(52.649799, 202.944469)"><g><path d="M 16.890625 0.75 C 13.859375 0.75 10.914062 0.375 8.0625 -0.375 C 5.21875 -1.125 2.90625 -2.125 1.125 -3.375 L 4.59375 -11.171875 C 6.269531 -10.066406 8.210938 -9.175781 10.421875 -8.5 C 12.628906 -7.820312 14.800781 -7.484375 16.9375 -7.484375 C 21 -7.484375 23.03125 -8.5 23.03125 -10.53125 C 23.03125 -11.601562 22.453125 -12.394531 21.296875 -12.90625 C 20.140625 -13.425781 18.28125 -13.972656 15.71875 -14.546875 C 12.90625 -15.148438 10.550781 -15.796875 8.65625 -16.484375 C 6.769531 -17.179688 5.148438 -18.296875 3.796875 -19.828125 C 2.441406 -21.359375 1.765625 -23.425781 1.765625 -26.03125 C 1.765625 -28.3125 2.382812 -30.367188 3.625 -32.203125 C 4.875 -34.035156 6.738281 -35.488281 9.21875 -36.5625 C 11.695312 -37.632812 14.734375 -38.171875 18.328125 -38.171875 C 20.785156 -38.171875 23.207031 -37.894531 25.59375 -37.34375 C 27.988281 -36.789062 30.09375 -35.976562 31.90625 -34.90625 L 28.65625 -27.046875 C 25.09375 -28.972656 21.632812 -29.9375 18.28125 -29.9375 C 16.175781 -29.9375 14.640625 -29.625 13.671875 -29 C 12.710938 -28.375 12.234375 -27.5625 12.234375 -26.5625 C 12.234375 -25.5625 12.800781 -24.8125 13.9375 -24.3125 C 15.082031 -23.820312 16.921875 -23.304688 19.453125 -22.765625 C 22.304688 -22.160156 24.664062 -21.507812 26.53125 -20.8125 C 28.40625 -20.125 30.03125 -19.019531 31.40625 -17.5 C 32.78125 -15.988281 33.46875 -13.929688 33.46875 -11.328125 C 33.46875 -9.085938 32.84375 -7.054688 31.59375 -5.234375 C 30.34375 -3.421875 28.46875 -1.96875 25.96875 -0.875 C 23.476562 0.207031 20.453125 0.75 16.890625 0.75 Z M 16.890625 0.75 "/></g></g></g><g fill="#ffffff" fill-opacity="1"><g transform="translate(91.880946, 202.944469)"><g><path d="M 28.8125 -7.265625 L 12.984375 -7.265625 L 10.046875 0 L -0.75 0 L 15.765625 -37.421875 L 26.1875 -37.421875 L 42.765625 0 L 31.75 0 Z M 25.71875 -15.078125 L 20.90625 -27.046875 L 16.09375 -15.078125 Z M 25.71875 -15.078125 "/></g></g></g><g fill="#ffffff" fill-opacity="1"><g transform="translate(138.541318, 202.944469)"><g><path d="M 3.734375 -37.421875 L 14.328125 -37.421875 L 14.328125 0 L 3.734375 0 Z M 3.734375 -37.421875 "/></g></g></g><g fill="#ffffff" fill-opacity="1"><g transform="translate(161.310618, 202.944469)"><g><path d="M 3.734375 -37.421875 L 14.328125 -37.421875 L 14.328125 -8.390625 L 32.171875 -8.390625 L 32.171875 0 L 3.734375 0 Z M 3.734375 -37.421875 "/></g></g></g><g fill="#ffffff" fill-opacity="1"><g transform="translate(198.564215, 202.944469)"><g><path d="M 14.328125 -29.234375 L 14.328125 -21 L 30.84375 -21 L 30.84375 -12.828125 L 14.328125 -12.828125 L 14.328125 0 L 3.734375 0 L 3.734375 -37.421875 L 33.09375 -37.421875 L 33.09375 -29.234375 Z M 14.328125 -29.234375 "/></g></g></g><g fill="#ffffff" fill-opacity="1"><g transform="translate(237.528127, 202.944469)"><g><path d="M 3.734375 -37.421875 L 14.328125 -37.421875 L 14.328125 0 L 3.734375 0 Z M 3.734375 -37.421875 "/></g></g></g><g fill="#ffffff" fill-opacity="1"><g transform="translate(260.297427, 202.944469)"><g><path d="M 39.34375 -37.421875 L 39.34375 0 L 30.625 0 L 14.109375 -19.9375 L 14.109375 0 L 3.734375 0 L 3.734375 -37.421875 L 12.453125 -37.421875 L 28.96875 -17.484375 L 28.96875 -37.421875 Z M 39.34375 -37.421875 "/></g></g></g><g fill="#ffffff" fill-opacity="1"><g transform="translate(214.932367, 219.086592)"><g><path d="M 4.65625 0.09375 C 3.875 0.09375 3.171875 -0.078125 2.546875 -0.421875 C 1.921875 -0.773438 1.425781 -1.253906 1.0625 -1.859375 C 0.707031 -2.460938 0.53125 -3.144531 0.53125 -3.90625 C 0.53125 -4.65625 0.707031 -5.332031 1.0625 -5.9375 C 1.425781 -6.539062 1.921875 -7.015625 2.546875 -7.359375 C 3.179688 -7.710938 3.890625 -7.890625 4.671875 -7.890625 C 5.273438 -7.890625 5.828125 -7.785156 6.328125 -7.578125 C 6.835938 -7.378906 7.269531 -7.078125 7.625 -6.671875 L 6.90625 -5.96875 C 6.320312 -6.582031 5.59375 -6.890625 4.71875 -6.890625 C 4.132812 -6.890625 3.609375 -6.757812 3.140625 -6.5 C 2.671875 -6.238281 2.304688 -5.878906 2.046875 -5.421875 C 1.785156 -4.972656 1.65625 -4.46875 1.65625 -3.90625 C 1.65625 -3.332031 1.785156 -2.816406 2.046875 -2.359375 C 2.304688 -1.910156 2.671875 -1.554688 3.140625 -1.296875 C 3.609375 -1.035156 4.132812 -0.90625 4.71875 -0.90625 C 5.582031 -0.90625 6.3125 -1.21875 6.90625 -1.84375 L 7.625 -1.140625 C 7.269531 -0.734375 6.835938 -0.425781 6.328125 -0.21875 C 5.816406 -0.0078125 5.257812 0.09375 4.65625 0.09375 Z M 4.65625 0.09375 "/></g></g></g><g fill="#ffffff" fill-opacity="1"><g transform="translate(225.749458, 219.086592)"><g><path d="M 1.171875 -7.796875 L 2.28125 -7.796875 L 2.28125 -0.96875 L 6.5 -0.96875 L 6.5 0 L 1.171875 0 Z M 1.171875 -7.796875 "/></g></g></g><g fill="#ffffff" fill-opacity="1"><g transform="translate(235.129711, 219.086592)"><g><path d="M 4.6875 0.09375 C 3.90625 0.09375 3.195312 -0.078125 2.5625 -0.421875 C 1.925781 -0.773438 1.425781 -1.253906 1.0625 -1.859375 C 0.707031 -2.472656 0.53125 -3.15625 0.53125 -3.90625 C 0.53125 -4.65625 0.707031 -5.332031 1.0625 -5.9375 C 1.425781 -6.539062 1.925781 -7.015625 2.5625 -7.359375 C 3.195312 -7.710938 3.90625 -7.890625 4.6875 -7.890625 C 5.46875 -7.890625 6.171875 -7.710938 6.796875 -7.359375 C 7.429688 -7.015625 7.925781 -6.539062 8.28125 -5.9375 C 8.644531 -5.332031 8.828125 -4.65625 8.828125 -3.90625 C 8.828125 -3.144531 8.644531 -2.460938 8.28125 -1.859375 C 7.925781 -1.253906 7.429688 -0.773438 6.796875 -0.421875 C 6.171875 -0.078125 5.46875 0.09375 4.6875 0.09375 Z M 4.6875 -0.90625 C 5.257812 -0.90625 5.773438 -1.035156 6.234375 -1.296875 C 6.691406 -1.554688 7.050781 -1.910156 7.3125 -2.359375 C 7.570312 -2.816406 7.703125 -3.332031 7.703125 -3.90625 C 7.703125 -4.46875 7.570312 -4.972656 7.3125 -5.421875 C 7.050781 -5.878906 6.691406 -6.238281 6.234375 -6.5 C 5.773438 -6.757812 5.257812 -6.890625 4.6875 -6.890625 C 4.113281 -6.890625 3.59375 -6.757812 3.125 -6.5 C 2.664062 -6.238281 2.304688 -5.878906 2.046875 -5.421875 C 1.785156 -4.972656 1.65625 -4.46875 1.65625 -3.90625 C 1.65625 -3.332031 1.785156 -2.816406 2.046875 -2.359375 C 2.304688 -1.910156 2.664062 -1.554688 3.125 -1.296875 C 3.59375 -1.035156 4.113281 -0.90625 4.6875 -0.90625 Z M 4.6875 -0.90625 "/></g></g></g><g fill="#ffffff" fill-opacity="1"><g transform="translate(247.249989, 219.086592)"><g><path d="M 4.40625 0.09375 C 3.363281 0.09375 2.550781 -0.203125 1.96875 -0.796875 C 1.394531 -1.390625 1.109375 -2.242188 1.109375 -3.359375 L 1.109375 -7.796875 L 2.21875 -7.796875 L 2.21875 -3.40625 C 2.21875 -1.738281 2.945312 -0.90625 4.40625 -0.90625 C 5.125 -0.90625 5.671875 -1.109375 6.046875 -1.515625 C 6.429688 -1.929688 6.625 -2.5625 6.625 -3.40625 L 6.625 -7.796875 L 7.703125 -7.796875 L 7.703125 -3.359375 C 7.703125 -2.242188 7.410156 -1.390625 6.828125 -0.796875 C 6.242188 -0.203125 5.4375 0.09375 4.40625 0.09375 Z M 4.40625 0.09375 "/></g></g></g><g fill="#ffffff" fill-opacity="1"><g transform="translate(258.824491, 219.086592)"><g><path d="M 1.171875 -7.796875 L 4.453125 -7.796875 C 5.273438 -7.796875 6.003906 -7.628906 6.640625 -7.296875 C 7.285156 -6.972656 7.785156 -6.515625 8.140625 -5.921875 C 8.492188 -5.335938 8.671875 -4.664062 8.671875 -3.90625 C 8.671875 -3.132812 8.492188 -2.453125 8.140625 -1.859375 C 7.785156 -1.273438 7.285156 -0.816406 6.640625 -0.484375 C 6.003906 -0.160156 5.273438 0 4.453125 0 L 1.171875 0 Z M 4.390625 -0.96875 C 5.023438 -0.96875 5.582031 -1.085938 6.0625 -1.328125 C 6.539062 -1.578125 6.90625 -1.921875 7.15625 -2.359375 C 7.414062 -2.804688 7.546875 -3.320312 7.546875 -3.90625 C 7.546875 -4.476562 7.414062 -4.984375 7.15625 -5.421875 C 6.90625 -5.867188 6.539062 -6.210938 6.0625 -6.453125 C 5.582031 -6.703125 5.023438 -6.828125 4.390625 -6.828125 L 2.28125 -6.828125 L 2.28125 -0.96875 Z M 4.390625 -0.96875 "/></g></g></g><g fill="#ffffff" fill-opacity="1"><g transform="translate(270.788838, 219.086592)"><g/></g></g><g fill="#ffffff" fill-opacity="1"><g transform="translate(276.549137, 219.086592)"><g><path d="M 3.703125 -3.46875 L 2.28125 -2.015625 L 2.28125 0 L 1.171875 0 L 1.171875 -7.796875 L 2.28125 -7.796875 L 2.28125 -3.4375 L 6.515625 -7.796875 L 7.78125 -7.796875 L 4.453125 -4.296875 L 8 0 L 6.703125 0 Z M 3.703125 -3.46875 "/></g></g></g><g fill="#ffffff" fill-opacity="1"><g transform="translate(287.321682, 219.086592)"><g><path d="M 1.171875 -7.796875 L 2.28125 -7.796875 L 2.28125 0 L 1.171875 0 Z M 1.171875 -7.796875 "/></g></g></g><g fill="#ffffff" fill-opacity="1"><g transform="translate(293.538652, 219.086592)"><g><path d="M 2.71875 -6.828125 L 0.046875 -6.828125 L 0.046875 -7.796875 L 6.5 -7.796875 L 6.5 -6.828125 L 3.828125 -6.828125 L 3.828125 0 L 2.71875 0 Z M 2.71875 -6.828125 "/></g></g></g></svg>